# xmcd CD database file
#
# Track frame offsets:
#	150
#	12442
#	31737
#	50175
#	71412
#	88500
#	108207
#	120237
#	133597
#	143617
#	162927
#	187132
#	202882
#	217087
#	235590
#	254275
#	285437
#	295352
#	311075
#	327180
#
# Disc length: 4641 seconds
#
# Revision: 2
# Processed by: cddbd v1.5.1PL0 Copyright (c) Steve Scherf et al.
# Submitted via: CDex 1.51
#
DISCID=1f121f14
DTITLE=Various Artist - MOVIE HITS2 (Disc1 POP&ROCK)
DYEAR=2002
DGENRE=Pop
TTITLE0=Soul Bossa Nova (Quincy Jones)
TTITLE1=Everyday Is A Winding Road (Sheryl Crow)
TTITLE2=Eye Of The Tiger (Survivor)
TTITLE3=Living In America (James Brown)
TTITLE4=Footloose (Kenny Loggins)
TTITLE5=Baby, I Love Your Way (Big Mountain)
TTITLE6=California Dreamin' (The Mamas and The Papas)
TTITLE7=Raindrops Keep Fallin' On My Head (B.J.Thomas)
TTITLE8=Misirlou (Dick Dale and His Del-Tones)
TTITLE9=Street Life (Randy Crowford)
TTITLE10=Falling (Julee Cruise)
TTITLE11=Wild Thing (X)
TTITLE12=Rock Is Dead (Marilyn Manson)
TTITLE13=Beautiful Day (U2)
TTITLE14=When The Going Gets Tough (Billy Ocean)
TTITLE15=Tonight Is What It Means To Be Young (Fire Inc.)
TTITLE16=(We're Gonna) Rock Around The Clock (Bill Haley And His Comets)
TTITLE17=Born To Be Wild (Steppenwolf)
TTITLE18=Can't Fight The Moolight (Leann Rimes)
TTITLE19=Let's Go Crazy (Prince)
EXTD=YEAR: 2002
EXTT0=
EXTT1=
EXTT2=
EXTT3=
EXTT4=
EXTT5=
EXTT6=
EXTT7=
EXTT8=
EXTT9=
EXTT10=
EXTT11=
EXTT12=
EXTT13=
EXTT14=
EXTT15=
EXTT16=
EXTT17=
EXTT18=
EXTT19=
PLAYORDER=
